# xmcd CD database file
#
# Track frame offsets:
#	150
#	10056
#	21224
#	30889
#	38646
#	51640
#	67449
#	80029
#	88495
#	102290
#	113818
#	120633
#
# Disc length: 1819 seconds
#
# Revision: 1
# Processed by: cddbd v1.5.1PL0 Copyright (c) Steve Scherf et al.
# Submitted via: jetAudio 5
#
DISCID=a107190c
DTITLE=Various Artist - Blues Instrumentals
DYEAR=1900
DGENRE=
TTITLE0=Lonesome Blues
TTITLE1=Poor Boy
TTITLE2=Chicken Can't Roost
TTITLE3=Ragged And Dirty
TTITLE4=Babe's Piece
TTITLE5=Poor Boy
TTITLE6=Old Country Rock
TTITLE7=Cigarette
TTITLE8=Carolina Breakdown
TTITLE9=Going Down The Road
TTITLE10=One - Dime Blues
TTITLE11=Where The Southern
EXTD=
EXTT0=
EXTT1=
EXTT2=
EXTT3=
EXTT4=
EXTT5=
EXTT6=
EXTT7=
EXTT8=
EXTT9=
EXTT10=
EXTT11=
PLAYORDER=
